<?xml version="1.0" encoding="utf-8"?>
<!-- Generator: Adobe Illustrator 19.0.0, SVG Export Plug-In . SVG Version: 6.00 Build 0)  -->
<svg version="1.1" id="Layer_1" xmlns="http://www.w3.org/2000/svg" xmlns:xlink="http://www.w3.org/1999/xlink" x="0px" y="0px"
	 viewBox="0 0 303.7 49.5" style="enable-background:new 0 0 303.7 49.5;" xml:space="preserve">
<style type="text/css">
	.st0{fill:#EF292D;}
	.st1{fill-rule:evenodd;clip-rule:evenodd;fill:#FFFFFF;}
	.st2{fill-rule:evenodd;clip-rule:evenodd;}
</style>
<g>
	<polygon class="st0" points="0,13.2 13.2,49.5 49.5,36.3 36.3,0 	"/>
	<path class="st1" d="M26.9,20.8c0.4,1.2-0.5,1.4-1.5,1.2c-0.9-0.2-2.2-0.7-2.6-1.9c-0.5-1.2,0.5-1.4,1.5-1.2
		C25.2,19,26.4,19.6,26.9,20.8z M26.3,24.6c2.2,0.4,3.3-1,2.4-3.5c-0.9-2.5-3.2-4.5-5.4-4.9c-2.2-0.4-3.3,1-2.4,3.5
		C21.8,22.2,24.1,24.2,26.3,24.6z M34,8.6l0.6,1.7l1.8-2.1l-0.6-1.7L34,8.6z M37.4,18.1l1.8-2.1L36.7,9l-1.8,2.1L37.4,18.1z
		 M9.2,30.6l0.6,1.7l2.8,0.5L12,31.1L9.2,30.6z M12.7,40.1l2.7,0.5l-2.5-6.9l-2.7-0.5L12.7,40.1z M28.8,28.4l1.8-2.1l-10-1.8
		l-1.8,2.1L28.8,28.4z M28.7,18.5l2.5,6.9l1.8-2.1l-1.4-3.8c-0.3-0.8-0.2-1.8,0.4-2.6c1-1.2,1.3-0.1,1.6,0.8l1.2,3.3l1.8-2.1
		l-1.6-4.4c-0.4-1-1.1-2.5-2.9-0.3c-0.6,0.8-1.2,2.1-1.3,3.2l0,0l-0.3-0.9L28.7,18.5z M29.4,33.3c0.2,0.6,0.2,1.1-0.4,1
		c-0.6-0.1-1-0.6-1.3-1.2c-0.3-0.6-0.6-1.3-1-1.7C28.1,31.6,28.9,32.1,29.4,33.3z M30,36.9c1.5,0.3,1.8-0.8,1.2-2.3
		c-0.4-1-1-2-1.9-2.8c0.2,0,0.4,0,0.6,0L29,29.1c-0.5,0.2-1.1,0.1-1.8,0l-3.2-0.6C22,28.2,22.3,30,23,31.9c0.3,0.9,0.8,1.8,1.4,2.6
		c0.6,0.8,1.4,1.4,2.4,1.6L26,33.6c-0.7-0.2-1.1-0.8-1.4-1.5c-0.2-0.5-0.2-1.2,0.3-1.1c0.4,0.1,0.7,0.3,0.9,0.8
		C26.8,33.7,27.6,36.5,30,36.9z M17.2,38.9c0.8,1.9,2.3,0.8,3.6-0.7c1.2-1.5,2.4-3.7,1.7-5.6c-0.2-0.6-0.9-1.2-2.1-0.2
		c-0.9,0.8-2.1,2.1-2.4,1.4c-0.2-0.5,0.3-1.1,0.6-1.4c0.2-0.3,0.4-0.5,0.6-0.5c0.2-0.1,0.3,0,0.4,0.3l1.7-2
		c-0.7-1.7-2.1-0.7-3.3,0.8c-1.1,1.3-2.3,3.4-1.7,5.1c0.7,1.9,2.1,0.2,3.4-0.8c0.4-0.3,0.9-0.8,1.1-0.3c0.2,0.5-0.2,1.3-0.6,1.7
		c-0.3,0.3-0.5,0.5-0.8,0.5c-0.2,0-0.4-0.1-0.6-0.4L17.2,38.9z"/>
	<path class="st2" d="M62.7,31v5.4h0.5l1.1-1.2c0.7,0.5,1.8,1.5,3.8,1.5c3.3,0,5.5-2.6,5.5-6c0-2.4-1.6-4.2-3.7-4.9
		c-2.2-0.8-5.7-0.1-5.7-3.2c0-1.6,1.5-3.3,3.3-3.3c3,0,3.8,2.8,4.1,4h0.5v-4.4h-0.5l-0.8,1c-0.7-0.4-1.6-1.1-3.3-1.1
		c-2.5,0-4.8,2.3-4.8,4.9c0,2.5,1.2,3.8,3.1,4.6c2.5,1,6.3,0,6.3,3.9c0,2.1-1.6,4-3.9,4c-3.7,0-4.5-4.1-4.9-5.1H62.7z M80.8,30.4
		v1.5c0,1.7-1,3.6-2.5,3.6c-1.1,0-1.6-1.1-1.6-2.4c0-1.7,1-2.2,2.3-2.5C79.6,30.5,80.3,30.4,80.8,30.4z M83,36.7
		c1.3,0,2.1-0.8,2.5-1.3L85.1,35c-0.2,0.2-0.5,0.5-0.9,0.5c-0.6,0-0.8-0.7-0.8-1.5v-7.2c0-1.7-1.3-2.3-3.8-2.3
		c-2.4,0-4.7,1.2-4.7,2.7c0,0.9,0.7,1.4,1.3,1.4c0.6,0,1.3-0.6,1.3-1.3c0-0.7-0.6-0.9-0.6-1.3c0-0.6,1.4-1,2.3-1
		c1.2,0,1.6,0.3,1.6,1.4v3.2c-0.8,0.1-1.9,0.1-3.1,0.4c-1.5,0.3-3.6,1.3-3.6,3.5c0,1.8,1.3,3,2.9,3c2.3,0,3.2-1.2,3.8-2.4h0
		C80.9,35,81.2,36.7,83,36.7z M85.6,35.6v0.6h6.1v-0.6h-1.8V18.9c-0.8,0.1-1.6,0.2-2.6,0.2h-1.9v0.6h2v16H85.6z M97.2,25.2
		c2.8,0,2.8,2.6,2.8,5.4c0,2.9,0,5.4-2.8,5.4c-2.8,0-2.8-2.5-2.8-5.4C94.4,27.8,94.4,25.2,97.2,25.2z M97.2,36.7
		c3.4,0,5.8-3.1,5.8-6c0-2.9-2.3-6-5.8-6c-3.4,0-5.8,3.1-5.8,6C91.5,33.6,93.8,36.7,97.2,36.7z M103,35.6v0.6h6.1v-0.6h-1.8v-5.6
		c0-2.1,1.7-4.6,3.4-4.6c1.6,0,1.6,1.3,1.6,3.5v6.7h-1.7v0.6h6v-0.6h-1.8v-7.2c0-1.9-0.2-3.8-3.5-3.8c-2.6,0-3.7,2.2-4.2,3.4h0v-3.1
		c-0.7,0.1-1.5,0.2-2.5,0.2h-1.9v0.6h2v10H103z M124.1,29.2h-4.8c0-2.3,0.1-4,2.7-4c1.6,0,2.2,1.1,2.2,2.5V29.2z M119.3,32v-2.2h7.6
		c0-2.5-1.7-5.2-4.9-5.2c-3.1,0-5.7,3.2-5.7,6.1c0,3.1,2.4,5.9,5.8,5.9c3.5,0,4.5-2.6,5-3.9l-0.5-0.2c-0.3,1-1.6,3.5-4.5,3.5
		C119.3,36.1,119.3,33.6,119.3,32z M135.9,25.2c2.6,0,3.4,2.4,3.4,5.4c0,2.7-0.7,5.4-3.4,5.4c-1.9,0-2-2.1-2-5.6
		C133.9,27.3,134,25.2,135.9,25.2z M142,36.2h1.7v-0.6h-1.9V18.9c-0.8,0.1-1.6,0.2-2.6,0.2h-1.9v0.6h2V27h-0.1
		c-0.3-0.7-1.2-2.4-3.3-2.4c-2.7,0-4.9,2.7-4.9,5.9c0,3.2,2.3,6.1,4.9,6.1c2.2,0,3.1-1.6,3.5-2.3h0.1v2.1
		C140.2,36.3,140.9,36.2,142,36.2z M151.5,29.2h-4.8c0-2.3,0.1-4,2.7-4c1.6,0,2.2,1.1,2.2,2.5V29.2z M146.6,32v-2.2h7.6
		c0-2.5-1.7-5.2-4.9-5.2c-3.1,0-5.7,3.2-5.7,6.1c0,3.1,2.4,5.9,5.8,5.9c3.5,0,4.5-2.6,4.9-3.9l-0.5-0.2c-0.3,1-1.6,3.5-4.5,3.5
		C146.7,36.1,146.6,33.6,146.6,32z M154.4,35.6v0.6h6.1v-0.6h-1.9V18.9c-0.8,0.1-1.6,0.2-2.6,0.2h-1.9v0.6h2v16H154.4z M164,35.6
		v0.6h5.2v-0.6H167V20.3h0.1l5.2,15.9h0.6l5.1-15.7h0.1v15.1h-2.1v0.6h7.1v-0.6h-2.1v-16h2.1v-0.6h-5.4l-4,12.4h-0.1l-4.1-12.4H164
		v0.6h2.2v16H164z M188.6,25.2c2.8,0,2.8,2.6,2.8,5.4c0,2.9,0,5.4-2.8,5.4c-2.8,0-2.8-2.5-2.8-5.4C185.8,27.8,185.8,25.2,188.6,25.2
		z M188.6,36.7c3.4,0,5.8-3.1,5.8-6c0-2.9-2.4-6-5.8-6c-3.4,0-5.8,3.1-5.8,6C182.8,33.6,185.2,36.7,188.6,36.7z M201.9,25.2
		c1.9,0,2,2.1,2,5.3c0,3.5-0.1,5.6-2,5.6c-2.6,0-3.3-2.7-3.3-5.4C198.6,27.6,199.3,25.2,201.9,25.2z M201.9,36.7
		c2.7,0,4.9-2.9,4.9-6.1c0-3.1-2.3-5.9-4.9-5.9c-2.1,0-3,1.6-3.3,2.3h-0.1v-8.1c-0.8,0.1-1.6,0.2-2.6,0.2H194v0.6h2v16h-2.1v0.6h1.9
		c0.5,0,1,0,1.4,0l1.2,0.1v-2.1h0.1C198.9,35,199.8,36.7,201.9,36.7z M209.9,22.7c0.8,0,1.5-0.7,1.5-1.5s-0.7-1.5-1.5-1.5
		c-0.8,0-1.5,0.7-1.5,1.5S209.1,22.7,209.9,22.7z M216.9,35.6V18.9c-0.8,0.1-1.6,0.2-2.6,0.2h-1.9v0.6h2v16h-3.1V24.9
		c-0.8,0.1-1.6,0.2-2.6,0.2h-1.9v0.6h2v10H207v0.6h11.8v-0.6H216.9z M226.3,29.2h-4.8c0-2.3,0-4,2.7-4c1.6,0,2.1,1.1,2.1,2.5V29.2z
		 M221.5,32v-2.2h7.6c0-2.5-1.7-5.2-4.9-5.2c-3.1,0-5.7,3.2-5.7,6.1c0,3.1,2.4,5.9,5.8,5.9c3.6,0,4.5-2.6,4.9-3.9l-0.5-0.2
		c-0.3,1-1.6,3.5-4.5,3.5C221.5,36.1,221.5,33.6,221.5,32z M229.9,35.1c0,0.9,0.7,1.5,1.6,1.5c0.9,0,1.6-0.7,1.6-1.5
		c0-0.8-0.7-1.5-1.6-1.5C230.5,33.6,229.9,34.3,229.9,35.1z M258.6,22.7c0.8,0,1.5-0.7,1.5-1.5s-0.7-1.5-1.5-1.5
		c-0.8,0-1.5,0.7-1.5,1.5S257.8,22.7,258.6,22.7z M265.5,35.6V18.9c-0.8,0.1-1.6,0.2-2.6,0.2h-1.9v0.6h2v16h-3V24.9
		c-0.8,0.1-1.5,0.2-2.6,0.2h-1.9v0.6h2v10h-4.1v-16h2.1v-0.6h-5.4l-4,12.4h-0.1l-4.1-12.4h-5.4v0.6h2.2v16h-2.2v0.6h5.1v-0.6h-2.2
		V20.3h0.1l5.2,15.9h0.6l5.1-15.7h0.1v15.1h-2.1v0.6h19.1v-0.6H265.5z M274.2,30.4v1.5c0,1.7-1,3.6-2.5,3.6c-1.1,0-1.6-1.1-1.6-2.4
		c0-1.7,1-2.2,2.3-2.5C273,30.5,273.7,30.4,274.2,30.4z M276.4,36.7c1.3,0,2.1-0.8,2.5-1.3l-0.4-0.3c-0.2,0.2-0.5,0.5-0.9,0.5
		c-0.6,0-0.8-0.7-0.8-1.5v-7.2c0-1.7-1.3-2.3-3.8-2.3c-2.4,0-4.6,1.2-4.6,2.7c0,0.9,0.6,1.4,1.3,1.4c0.6,0,1.3-0.6,1.3-1.3
		c0-0.7-0.6-0.9-0.6-1.3c0-0.6,1.4-1,2.3-1c1.2,0,1.6,0.3,1.6,1.4v3.2c-0.8,0.1-1.9,0.1-3.1,0.4c-1.5,0.3-3.6,1.3-3.6,3.5
		c0,1.8,1.3,3,2.9,3c2.3,0,3.2-1.2,3.8-2.4h0C274.3,35,274.6,36.7,276.4,36.7z M278.9,35.6v0.6h6.1v-0.6h-1.9v-5.6
		c0-2.1,1.7-4.6,3.4-4.6c1.6,0,1.6,1.3,1.6,3.5v6.7h-1.6v0.6h6v-0.6h-1.8v-7.2c0-1.9-0.2-3.8-3.5-3.8c-2.6,0-3.7,2.2-4.2,3.4H283
		v-3.1c-0.7,0.1-1.4,0.2-2.5,0.2h-1.9v0.6h2v10H278.9z M297.9,25.2c2.8,0,2.8,2.6,2.8,5.4c0,2.9,0,5.4-2.8,5.4
		c-2.8,0-2.8-2.5-2.8-5.4C295.1,27.8,295.1,25.2,297.9,25.2z M297.9,36.7c3.4,0,5.8-3.1,5.8-6c0-2.9-2.4-6-5.8-6
		c-3.4,0-5.8,3.1-5.8,6C292.1,33.6,294.5,36.7,297.9,36.7z"/>
</g>
</svg>
